# AST/ASF file generated using VICON BodyLanguage
# -----------------------------------------------
:version 1.10
:name VICON
:units
  mass 1.0
  length 0.45
  angle deg
:documentation
   .ast/.asf automatically generated from VICON data using
   VICON BodyBuilder and BodyLanguage model FoxedUp or BRILLIANT.MOD
:root
   order TX TY TZ RX RY RZ
   axis XYZ
   position 0 0 0  
   orientation 0 0 0 
:bonedata
  begin
     id 1 
     name lhipjoint
     direction 0.521452 -0.77106 0.36545 
     length 2.0933 
     axis 0 0 0  XYZ
  end
  begin
     id 2 
     name lfemur
     direction 0.34202 -0.939693 0  
     length 6.83441  
     axis 0 0 20  XYZ
    dof rx ry rz
    limits (-160.0 20.0)
           (-70.0 70.0)
           (-60.0 70.0)
  end
  begin
     id 3 
     name ltibia
     direction 0.34202 -0.939693 0   
     length 7.28749   
     axis 0 0 20   XYZ
    dof rx
    limits (-10.0 170.0)
  end
  begin
     id 4 
     name lfoot
     direction 0.100608 -0.276418 0.955757   
     length 1.52195   
     axis -90 7.62852e-016 20   XYZ
    dof rx rz
    limits (-45.0 90.0)
           (-70.0 20.0)
  end
  begin
     id 5 
     name ltoes
     direction 1.53558e-011 -4.21907e-011 1   
     length 0.770459   
     axis -90 7.62852e-016 20   XYZ
    dof rx
    limits (-90.0 20.0)
  end
  begin
     id 6 
     name rhipjoint
     direction -0.488071 -0.788702 0.373812   
     length 2.04648  
     axis 0 0 0  XYZ 
  end
  begin
     id 7 
     name rfemur
     direction -0.34202 -0.939693 0   
     length 6.92583   
     axis 0 0 -20   XYZ
    dof rx ry rz
    limits (-160.0 20.0)
           (-70.0 70.0)
           (-70.0 60.0)
  end
  begin
     id 8 
     name rtibia
     direction -0.34202 -0.939693 0   
     length 7.41043   
     axis 0 0 -20   XYZ
    dof rx
    limits (-10.0 170.0)
 end
 begin
     id 9 
     name rfoot
     direction -0.0784433 -0.215521 0.973343   
     length 1.67708  
     axis -90 -7.62852e-016 -20   XYZ
    dof rx rz
    limits (-45.0 90.0)
           (-20.0 70.0)
  end
  begin
     id 10 
     name rtoes
     direction -1.53551e-011 -4.21842e-011 1   
     length 0.849787   
     axis -90 -7.62852e-016 -20   XYZ
    dof rx
    limits (-90.0 20.0)
  end
  begin
     id 11 
     name lowerback
     direction -0.0122332 0.997575 -0.0685192   
     length 1.98724   
     axis 0 0 0   XYZ
    dof rx ry rz
    limits (-20.0 45.0)
           (-30.0 30.0)
           (-30.0 30.0)
  end
  begin
     id 12 
     name upperback
     direction 0.0182347 0.999724 -0.0148421   
     length 1.99029   
     axis 0 0 0   XYZ
    dof rx ry rz
    limits (-20.0 45.0)
           (-30.0 30.0)
           (-30.0 30.0)
  end
  begin
     id 13 
     name thorax
     direction 0.0242908 0.99956 0.0170184   
     length 1.99573   
     axis 0 0 0   XYZ
    dof rx ry rz
    limits (-20.0 45.0)
           (-30.0 30.0)
           (-30.0 30.0)
  end
  begin
     id 14 
     name lowerneck
     direction 0.0654488 0.985533 0.156338   
     length 1.4285   
     axis 0 0 0   XYZ
    dof rx ry rz
    limits (-20.0 45.0)
           (-30.0 30.0)
           (-30.0 30.0)
  end
  begin
     id 15 
     name upperneck
     direction -0.02953 0.998556 -0.0448842   
     length 1.44709   
     axis 0 0 0   XYZ
    dof rx ry rz
    limits (-20.0 45.0)
           (-30.0 30.0)
           (-30.0 30.0)
  end
  begin
     id 16
     name head
     direction -0.0155588 0.999386 -0.0314063  
     length 1.44689  
     axis 0 0 0   XYZ
    dof rx ry rz
    limits (-20.0 45.0)
           (-30.0 30.0)
           (-30.0 30.0)
  end
  begin
     id 17 
     name lclavicle
     direction 0.968229 0.236071 -0.0824755  
     length 3.60593  
     axis 0 0 0   XYZ
    dof ry rz
    limits (-20.0 10.0)
           (0.0 20.0)
  end
  begin
     id 18 
     name lhumerus
     direction 1 -4.48968e-011 7.8138e-029   
     length 5.06035   
     axis 180 -30 -90   XYZ
    dof rx ry rz
    limits (-60.0 90.0)
           (-90.0 90.0)
           (-90.0 90.0)
  end
  begin
     id 19
     name lradius
     direction 1 -4.48967e-011 9.02887e-028   
     length 3.1478   
     axis 180 -30 -90   XYZ
    dof rx
    limits (-10.0 170.0)
  end
  begin
     id 20
     name lwrist
     direction 1 -4.48961e-011 7.20928e-028   
     length 1.5739   
     axis -5.52449e-016 90 90   XYZ
    dof ry
    limits (-180.0 0.0)
 end
  begin
     id 21 
     name lhand
     direction 1 -4.48972e-011 1.44186e-027   
     length 0.606747   
     axis -9.20027e-016 90 90   XYZ
    dof rx rz
    limits (-90.0 90.0)
           (-45.0 45.0)
  end
  begin
     id 22 
     name lfingers
     direction 1 -4.48943e-011 2.88371e-027   
     length 0.489175   
     axis -1.84005e-015 90 90   XYZ
    dof rx
    limits (0.0 90.0)
  end
  begin
     id 23
     name lthumb
     direction 0.707107 -6.34917e-011 0.707107   
     length 0.70236   
     axis -90 45 2.85299e-015   XYZ
    dof rx rz
    limits (-45.0 45.0)
           (-45.0 45.0)
  end
  begin
     id 24 
     name rclavicle
     direction -0.978165 0.207816 0.0022268   
     length 3.35425  
     axis 0 0 0   XYZ 
    dof ry rz
    limits (-10.0 20.0)
           (-20.0 0.0)
  end
  begin
     id 25 
     name rhumerus
     direction -1 -4.48964e-011 -4.02159e-027  
     length 5.12273   
     axis 180 30 90   XYZ
    dof rx ry rz
    limits (-90.0 60.0)
           (-90.0 90.0)
           (-90.0 90.0)
  end
  begin
     id 26 
     name rradius
     direction -1 -4.48966e-011 1.62746e-027   
     length 3.422   
     axis 180 30 90   XYZ
    dof rx
    limits (-10.0 170.0)
  end
  begin
     id 27 
     name rwrist
     direction -1 -4.4896e-011 7.20928e-028   
     length 1.711   
     axis -5.52449e-016 -90 -90   XYZ
    dof ry
    limits (-180.0 0.0)
  end
  begin
     id 28
     name rhand
     direction -1 -4.48979e-011 1.44186e-027   
     length 0.704599   
     axis -9.20027e-016 -90 -90   XYZ
    dof rx rz
    limits (-90.0 90.0)
           (-45.0 45.0)
  end
  begin
     id 29
     name rfingers
     direction -1 -4.48962e-011 2.88371e-027   
     length 0.568066   
     axis -1.84005e-015 -90 -90   XYZ
    dof rx
    limits (0.0 90.0)
  end
  begin
     id 30
     name rthumb
     direction -0.707107 -6.34949e-011 0.707107   
     length 0.815633   
     axis -90 -45 -2.85299e-015   XYZ
    dof rx rz
    limits (-45.0 45.0)
           (-45.0 45.0)
  end
:hierarchy
  begin
    root lhipjoint rhipjoint lowerback
    lhipjoint lfemur
    lfemur ltibia
    ltibia lfoot
    lfoot ltoes
    rhipjoint rfemur
    rfemur rtibia
    rtibia rfoot
    rfoot rtoes
    lowerback upperback
    upperback thorax
    thorax lowerneck lclavicle rclavicle
    lowerneck upperneck
    upperneck head
    lclavicle lhumerus
    lhumerus lradius
    lradius lwrist
    lwrist lhand lthumb
    lhand lfingers
    rclavicle rhumerus
    rhumerus rradius
    rradius rwrist
    rwrist rhand rthumb
    rhand rfingers
  end

#!OML:ASF E:\id_vita\Project 1\Capture day 1\Session 1\Male1.ASF
:FULLY-SPECIFIED
:DEGREES
142
root 6.38838 30.1168 1.34547 23.0528 80.994 13.9058
lowerback 3.879 -0.295599 -7.75438
upperback 2.37728 -0.561015 -2.07785
thorax 0.343442 -0.313652 2.21771
lowerneck -2.90611 -0.118661 -2.56378
upperneck 5.50648 -0.534607 11.5495
head 2.36802 0.0465344 4.31535
rclavicle -2.06736e-014 3.65764e-014
rhumerus -33.9203 -21.1889 -72.5773
rradius 15.0316
rwrist 34.8904
rhand -6.72211 35.5471
rfingers 7.12502
rthumb 19.1381 6.46871
lclavicle -2.06736e-014 3.65764e-014
lhumerus -60.3796 45.1563 22.3686
lradius 6.80225
lwrist -72.2921
lhand -19.7594 40.9399
lfingers 7.12502
lthumb 6.57205 70.8179
rfemur -14.7802 1.92453 16.5046
rtibia 26.7348
rfoot -18.6077 -13.1062
rtoes -8.41663
lfemur -15.3598 -0.059173 -21.8821
ltibia 29.0746
lfoot -27.8886 6.55593
ltoes 34.2556
143
root 6.37678 30.1197 1.33619 21.3707 80.3131 11.9159
lowerback 4.21715 -0.0496334 -7.86263
upperback 2.26208 -0.282204 -2.02135
thorax 0.00934261 -0.163242 2.32871
lowerneck -2.74837 -0.1164 -2.75057
upperneck 5.45766 -0.523578 11.6963
head 2.32512 0.0459941 4.40357
rclavicle 1.98785e-014 -7.15625e-015
rhumerus -34.3167 -21.7199 -71.4201
rradius 14.8337
rwrist 35.9792
rhand -6.5009 35.7885
rfingers 7.12502
rthumb 19.3508 6.73127
lclavicle 1.98785e-014 -7.15625e-015
lhumerus -64.1911 46.6643 16.6193
lradius 6.34445
lwrist -77.16
lhand -19.848 41.8029
lfingers 7.12502
lthumb 6.48654 71.6836
rfemur -15.3226 2.07279 16.5361
rtibia 26.7994
rfoot -18.5998 -12.7165
rtoes -9.08714
lfemur -15.723 0.213493 -21.881
ltibia 29.219
lfoot -28.2396 6.90038
ltoes 34.1753
144
root 6.37027 30.1175 1.32707 21.3872 80.2729 11.9811
lowerback 4.89444 -0.0200736 -7.98568
upperback 2.29287 -0.311608 -2.02631
thorax -0.332918 -0.165985 2.39588
lowerneck -2.67891 -0.111277 -2.91372
upperneck 5.60245 -0.547812 12.2093
head 2.13045 0.0640432 4.14495
rclavicle -6.55989e-015 -1.51076e-014
rhumerus -34.5501 -21.185 -70.9914
rradius 14.824
rwrist 35.7099
rhand -6.32766 35.8507
rfingers 7.12502
rthumb 19.5173 6.81026
lclavicle -6.55989e-015 -1.51076e-014
lhumerus -69.0095 46.8019 9.99255
lradius 6.47678
lwrist -81.7391
lhand -20.2996 41.2765
lfingers 7.12502
lthumb 6.05062 71.1701
rfemur -15.3151 1.96045 16.4944
rtibia 26.834
rfoot -18.6563 -12.6953
rtoes -9.44767
lfemur -15.7424 0.127307 -21.9495
ltibia 29.3772
lfoot -28.5963 6.90694
ltoes 34.6651
145
root 6.36603 30.1186 1.31622 20.6799 80.1427 11.1728
lowerback 5.25405 0.00375876 -7.92827
upperback 2.39847 -0.30361 -2.08854
thorax -0.425614 -0.15858 2.30033
lowerneck -2.45587 -0.0552049 -3.00797
upperneck 5.48738 -0.462761 12.4123
head 2.05265 0.100121 4.22369
rclavicle -3.18055e-015 2.94201e-014
rhumerus -34.73 -21.1295 -70.49
rradius 14.7103
rwrist 36.0913
rhand -6.19599 35.8964
rfingers 7.12502
rthumb 19.6439 6.86887
lclavicle -3.18055e-015 2.94201e-014
lhumerus -73.0148 48.0739 3.71456
lradius 6.17859
lwrist -86.4138
lhand -20.4619 41.7651
lfingers 7.12502
lthumb 5.89384 71.6631
rfemur -15.4959 1.92432 16.5563
rtibia 26.8741
rfoot -18.6971 -12.663
rtoes -9.92658
lfemur -15.9138 0.12139 -21.8942
ltibia 29.5439
lfoot -29.036 6.95061
ltoes 35.1523
146
root 6.36153 30.1203 1.30435 20.3741 79.9532 10.6902
lowerback 5.78182 0.084363 -7.94138
upperback 2.31175 -0.25597 -2.20744
thorax -0.81538 -0.117667 2.18374
lowerneck -2.16682 -0.0317811 -3.19158
upperneck 5.44194 -0.42635 12.6668
head 1.98789 0.111909 4.33238
rclavicle 5.36719e-015 6.36111e-015
rhumerus -35.4077 -21.8647 -69.3644
rradius 14.486
rwrist 37.5263
rhand -6.03837 36.1955
rfingers 7.12502
rthumb 19.7955 7.18359
lclavicle 5.36719e-015 6.36111e-015
lhumerus -77.254 48.6036 -2.6991
lradius 6.20004
lwrist -90.9784
lhand -20.5022 42.4459
lfingers 7.12502
lthumb 5.85493 72.345
rfemur -15.7709 1.84993 16.5416
rtibia 26.8976
rfoot -18.7617 -12.5485
rtoes -10.1513
lfemur -16.1819 0.265012 -21.9218
ltibia 29.7335
lfoot -29.4536 6.89089
ltoes 35.1156
147
root 6.35601 30.1199 1.2964 20.141 79.8398 10.3138
lowerback 5.70287 0.10921 -7.87233
upperback 2.68498 -0.175575 -2.4361
thorax -0.391682 -0.0932224 1.90312
lowerneck -2.18815 -0.0121006 -3.3197
upperneck 5.29856 -0.392734 13.0416
head 1.94685 0.133751 4.46898
rclavicle -7.95139e-016 2.46493e-014
rhumerus -35.565 -23.4277 -68.2851
rradius 14.1132
rwrist 39.6117
rhand -5.85435 36.6017
rfingers 7.12502
rthumb 19.9724 7.60806
lclavicle -7.95139e-016 2.46493e-014
lhumerus -81.7072 47.2209 -9.65574
lradius 6.55247
lwrist -95.1738
lhand -21.2414 41.8322
lfingers 7.12502
lthumb 5.14123 71.7498
rfemur -15.9659 1.82248 16.5598
rtibia 26.8991
rfoot -18.8055 -12.4712
rtoes -10.1601
lfemur -16.4494 0.516995 -21.9234
ltibia 29.9553
lfoot -29.8408 6.61141
ltoes 34.8774
148
root 6.35081 30.1207 1.29073 18.8238 79.7689 8.77595
lowerback 6.21228 0.136405 -8.00481
upperback 2.69124 -0.199297 -2.23907
thorax -0.664775 -0.098773 2.18284
lowerneck -1.92358 0.0607834 -3.35891
upperneck 5.16778 -0.280309 13.0944
head 1.85432 0.176677 4.4923
rclavicle -3.18055e-015 -3.02153e-014
rhumerus -35.8967 -23.6926 -67.0127
rradius 13.8039
rwrist 40.7451
rhand -5.63908 36.7852
rfingers 7.12502
rthumb 20.1793 7.8133
lclavicle -3.18055e-015 -3.02153e-014
lhumerus -86.2148 48.3643 -16.1762
lradius 6.57348
lwrist -99.6756
lhand -20.6203 42.4035
lfingers 7.12502
lthumb 5.741 72.3058
rfemur -16.2463 1.95933 16.8115
rtibia 26.9402
rfoot -18.8012 -12.4962
rtoes -10.1829
lfemur -16.8072 0.787857 -21.6869
ltibia 30.171
lfoot -30.2353 6.1107
ltoes 34.233
149
root 6.34623 30.1244 1.28138 18.2711 79.5545 7.81802
lowerback 6.51293 0.297894 -8.06183
upperback 2.65387 -0.0223038 -2.24308
thorax -0.887776 -0.00225375 2.19834
lowerneck -1.68292 0.0294182 -3.62436
upperneck 5.07432 -0.313151 13.3818
head 1.78897 0.151926 4.6235
rclavicle 7.95139e-015 -2.3059e-014
rhumerus -36.5127 -24.4409 -65.5859
rradius 13.5405
rwrist 41.9532
rhand -5.47358 36.9683
rfingers 7.12502
rthumb 20.3383 8.01322
lclavicle 7.95139e-015 -2.3059e-014
lhumerus -90.2761 47.858 -22.2735
lradius 6.9496
lwrist -103.884
lhand -20.4313 42.3183
lfingers 7.12502
lthumb 5.92346 72.2155
rfemur -16.7959 2.05376 16.8832
rtibia 27.0265
rfoot -18.8688 -12.3086
rtoes -9.98494
lfemur -17.3771 0.990931 -21.626
ltibia 30.3677
lfoot -30.5474 5.15421
ltoes 33.6008
150
root 6.34118 30.1258 1.2697 18.632 79.339 7.76136
lowerback 6.72213 0.315439 -8.24923
upperback 2.73852 -0.0228554 -2.28504
thorax -0.914366 -0.00232576 2.2587
lowerneck -1.46483 0.102373 -3.73751
upperneck 4.92058 -0.200553 13.5872
head 1.69697 0.198413 4.70615
rclavicle -2.10712e-014 -7.95139e-016
rhumerus -36.759 -25.3598 -64.2202
rradius 13.3052
rwrist 43.5384
rhand -5.19577 37.243
rfingers 7.12502
rthumb 20.6053 8.31665
lclavicle -2.10712e-014 -7.95139e-016
lhumerus -94.6913 47.6201 -28.9913
lradius 7.24872
lwrist -108.138
lhand -20.3119 42.2734
lfingers 7.12502
lthumb 6.03873 72.1674
rfemur -17.3871 2.01578 16.7797
rtibia 27.1665
rfoot -19.0088 -12.0224
rtoes -9.54134
lfemur -17.9804 0.959389 -21.7265
ltibia 30.5464
lfoot -30.7383 3.59064
ltoes 34.2403
151
root 6.33422 30.1233 1.25778 18.5631 79.2638 7.36617
lowerback 6.98864 0.434022 -8.19787
upperback 2.88583 0.1258 -2.50479
thorax -0.92315 0.0742032 1.99067
lowerneck -1.54115 0.0645333 -3.91182
upperneck 4.87661 -0.250915 13.9587
head 1.7012 0.182203 4.84955
rclavicle -2.5842e-014 2.3059e-014
rhumerus -37.1822 -26.245 -63.3051
rradius 13.1978
rwrist 44.1227
rhand -5.01049 37.3427
rfingers 7.12502
rthumb 20.7833 8.4357
lclavicle -2.5842e-014 2.3059e-014
lhumerus -97.3326 44.7958 -34.3502
lradius 7.3782
lwrist -111.956
lhand -21.7881 41.9222
lfingers 7.12502
lthumb 4.61337 71.852
rfemur -17.8992 1.93932 16.8023
rtibia 27.3919
rfoot -19.151 -11.905
rtoes -8.62963
lfemur -18.5114 0.721238 -21.6908
ltibia 30.7239
lfoot -30.8967 1.84952
ltoes 35.646
152
root 6.32655 30.1201 1.2447 19.1008 79.3088 7.56458
lowerback 7.31661 0.49939 -8.27933
upperback 2.98029 0.184492 -2.67614
thorax -1.01105 0.10866 1.85226
lowerneck -1.31899 0.0394707 -3.82596
upperneck 4.69441 -0.269704 14.1894
head 1.61228 0.167627 4.90394
rclavicle 3.97569e-016 -2.06736e-014
rhumerus -37.6109 -26.4678 -62.6207
rradius 13.1065
rwrist 44.1209
rhand -4.82713 37.3184
rfingers 7.12502
rthumb 20.9595 8.43082
lclavicle 3.97569e-016 -2.06736e-014
lhumerus -99.8934 42.9957 -39.7671
lradius 7.32884
lwrist -115.927
lhand -22.5516 42.013
lfingers 7.12502
lthumb 3.87615 71.9575
rfemur -18.4308 1.81535 16.7347
rtibia 27.6505
rfoot -19.2781 -11.9168
rtoes -8.16224
lfemur -19.1251 0.516594 -21.7609
ltibia 30.955
lfoot -30.9731 0.385215
ltoes 36.3896
153
root 6.31842 30.1175 1.23027 19.8808 79.5379 7.94111
lowerback 7.7118 0.505446 -8.30272
upperback 3.06601 0.159917 -2.81224
thorax -1.13771 0.103272 1.72434
lowerneck -1.16552 -0.0158059 -3.53676
upperneck 4.49837 -0.327797 14.353
head 1.53487 0.137535 4.90268
rclavicle 1.63003e-014 1.98785e-014
rhumerus -38.3473 -27.6601 -61.1344
rradius 12.8516
rwrist 45.5466
rhand -4.8057 37.432
rfingers 7.12502
rthumb 20.9801 8.54674
lclavicle 1.63003e-014 1.98785e-014
lhumerus -103.416 42.8133 -45.6702
lradius 7.94528
lwrist -120.201
lhand -22.1514 41.7891
lfingers 7.12502
lthumb 4.26258 71.7262
rfemur -19.0093 1.60638 16.6804
rtibia 27.8991
rfoot -19.2856 -12.0472
rtoes -8.67905
lfemur -19.8525 0.26933 -21.8356
ltibia 31.2692
lfoot -30.9279 -0.688463
ltoes 36.6635
